<svg width="16" height="16" viewBox="0 0 16 16" fill="none" xmlns="http://www.w3.org/2000/svg">
<path d="M14.15 4H11.2C11.4 3.7 11.5 3.35 11.5 3C11.5 1.9 10.6 1 9.5 1C8.9 1 8.35 1.25 8 1.7C7.65 1.25 7.1 1 6.5 1C5.4 1 4.5 1.9 4.5 3C4.5 3.35 4.6 3.7 4.8 4H1.85C1.4 4 1 4.4 1 4.85V14.15C1 14.6 1.4 15 1.85 15H14.15C14.6 15 15 14.6 15 14.15V4.85C15 4.4 14.6 4 14.15 4ZM14 9H8.5V5.55L10.65 7.85L11.4 7.15L9.4 5H14V9ZM9.5 2C10.05 2 10.5 2.45 10.5 3C10.5 3.55 10.05 4 9.5 4H8.5V3C8.5 2.45 8.95 2 9.5 2ZM5.5 3C5.5 2.45 5.95 2 6.5 2C7.05 2 7.5 2.45 7.5 3V4H6.5C5.95 4 5.5 3.55 5.5 3ZM6.6 5L4.6 7.15L5.35 7.85L7.5 5.55V9H2V5H6.6ZM2 14V10H7.5V14H2ZM8.5 14V10H14V14H8.5Z" fill="#E0211B"/>
</svg>
