<svg class="pl_icon" xmlns="http://www.w3.org/2000/svg"><symbol id="pl_icon_voucher" viewBox="0 0 24 24"><path d="M20.5 12H20V7.526a.5.5 0 0 0-.5-.5h-4.978c.122-.098.245-.19.36-.307.507-.506.872-1.101 1.031-1.677.186-.676.075-1.26-.31-1.645-.744-.74-2.17-.431-3.324.72a4.211 4.211 0 0 0-.779 1.072 4.537 4.537 0 0 0-.777-1.033c-1.171-1.169-2.606-1.502-3.336-.771C7.134 3.635 7 3.984 7 4.39c-.001.735.43 1.608 1.154 2.332.115.115.235.205.354.303H4.5a.5.5 0 0 0-.5.5V12h-.5a.5.5 0 1 0 0 1H4v6.534a.5.5 0 0 0 .5.5H11v.464a.5.5 0 1 0 1 0v-.464h7.5a.5.5 0 0 0 .5-.5V13h.5a.5.5 0 1 0 0-1ZM8 4.392c0-.095.017-.223.093-.3.058-.058.16-.089.294-.089.384 0 1.027.26 1.629.86.808.81.999 1.692.77 1.921-.234.236-1.102.054-1.925-.768C8.225 5.38 8 4.743 8 4.392Zm3 14.642H5V13h6v6.034ZM11 12H5V8.026h6V12Zm1.986-7.176c.58-.579 1.192-.823 1.579-.823.148 0 .263.036.33.103.118.117.137.368.053.672-.111.406-.392.856-.772 1.236-.803.804-1.667.962-1.91.72-.242-.242-.081-1.106.72-1.908ZM19 19.034h-7V13h7v6.034ZM19 12h-7V8.026h7V12Z"/></symbol><use href="#pl_icon_voucher"/></svg>